<?xml version="1.0" encoding="utf-8"?>
<!-- Generator: Adobe Illustrator 13.0.0, SVG Export Plug-In  -->
<!DOCTYPE svg PUBLIC "-//W3C//DTD SVG 1.1//EN" "http://www.w3.org/Graphics/SVG/1.1/DTD/svg11.dtd" [
	<!ENTITY ns_flows "http://ns.adobe.com/Flows/1.0/">
]>
<svg version="1.1"
	 xmlns="http://www.w3.org/2000/svg" xmlns:xlink="http://www.w3.org/1999/xlink" xmlns:a="http://ns.adobe.com/AdobeSVGViewerExtensions/3.0/"
	 x="0px" y="0px" width="606px" height="126px" viewBox="-0.5 0.5 606 126" enable-background="new -0.5 0.5 606 126"
	 xml:space="preserve">
<defs>
</defs>
<polygon fill="#57068C" points="592.6,38.7 592.6,59.2 565.3,59.2 565.3,38.7 552.6,38.7 552.6,92.8 565.3,92.8 565.3,70.9 
	592.6,70.9 592.6,92.8 605,92.8 605,38.7 "/>
<path fill="#57068C" d="M244.6,47.5V84c0,5.7,3.2,8.801,7.8,8.801H291V81.5h-32.6c-1.1,0-1.1-0.399-1.1-1.399V70.5h32.9v-11h-32.9
	v-7.8c0-0.7,0-1.4,1.1-1.4H291V39h-38.6C247.8,38.7,244.6,41.8,244.6,47.5z"/>
<path fill="#57068C" d="M345.2,38.7H306.6c-4.6,0-7.399,3.2-7.399,8.8v45.3h12.3V51.7c0-0.7,0-1.4,1.1-1.4H345.2V38.7z"/>
<path fill="#57068C" d="M369.2,37.6c-5,0-8.5,2.5-10.601,7.4L337.4,93.1h13.8l4.6-11.3h26.9l4.6,11.3h13.8L379.9,45
	C377.7,39.7,374.2,37.6,369.2,37.6z M360,70.5l8.1-19.5c0.4-1.1,0.7-1.1,1.101-1.1c0.399,0,0.7,0,1.1,1.1l8.101,19.5H360z"/>
<path fill="#57068C" d="M452.8,30.2H428.4c-19.801,0-27.601,8.8-27.601,28c0,18.8,8.101,28,27.601,28h5.699V93.3H447.2V86.2h5.7
	c19.5,0,27.6-9.2,27.6-28C480.4,39,472.6,30.2,452.8,30.2z M434,74.4h-5.7c-12,0-14.899-5-14.899-16.3
	c0-11.3,3.199-16.3,14.899-16.3h5.7V74.4z M452.8,74.4h-5.7V41.5h5.7c12,0,14.9,5,14.9,16.3C467.6,69.4,464.4,74.4,452.8,74.4z"/>
<path fill="#57068C" d="M224.8,29.1c-6,0-9.9,3.5-12.7,10.3l-17,40.7l-17-41.1c-2.8-6.7-6.7-10.3-12.7-10.3
	c-7.1,0-11.7,4.2-11.7,13.5v50.3h13.1V44l17.3,41.4c2.1,5.7,5.7,8.8,11,8.8c5.3,0,8.5-3.2,11-8.8L223.4,44v49.2h13.1V42.6
	C236.5,33.3,232.2,29.1,224.8,29.1z"/>
<path fill="#57068C" d="M518.2,37.9H513.6c-19.8,0-27.6,8.8-27.6,28c0,18.8,8.1,28,27.6,28h4.2c19.5,0,27.601-9.2,27.601-28
	C545.8,46.8,538.1,37.9,518.2,37.9z M517.9,82.2h-4.2c-12,0-14.9-5-14.9-16.3s3.2-16.3,14.9-16.3h4.2c12,0,14.899,5,14.899,16.3
	C533.1,77.2,529.9,82.2,517.9,82.2z"/>
<path fill="#57068C" d="M63,63.1V0.8c-0.4,0-1.1,0-1.4,0C27.6,1.5,0,29.5,0,63.8C0,93.2,20.2,118.3,47.8,125c0.4,0,1.1,0.4,1.4,0.4
	V69.1c0-2.8,2.5-5.3,5.3-5.3h8.1C62.7,63.8,63,63.4,63,63.1z M50.7,53.2c-4.2,0-7.4-3.5-7.4-7.4c0-4.2,3.5-7.4,7.4-7.4
	c4.2,0,7.4,3.5,7.4,7.4C58.1,49.6,54.9,53.2,50.7,53.2z"/>
<path fill="#57068C" d="M72.2,0.4C71.8,0,71.1,0,70.8,0v65.1c0,2.8-2.5,5.3-5.3,5.3h-8.1c-0.4,0-0.7,0.4-0.7,0.7v54.5
	c0.4,0,1.1,0,1.4,0c1.4,0,3.2,0.399,5,0.399c34.7,0,63-28.3,63-63C126.1,30.9,102.7,4.7,72.2,0.4z M69.4,96.3
	c-4.2,0-7.4-3.5-7.4-7.4c0-4.2,3.5-7.4,7.4-7.4c4.2,0,7.4,3.5,7.4,7.4S73.3,96.3,69.4,96.3z M87.8,96.3c-4.2,0-7.4-3.5-7.4-7.4
	c0-4.2,3.5-7.4,7.4-7.4c4.2,0,7.4,3.5,7.4,7.4S92.1,96.3,87.8,96.3z M113.7,88.6c0,4.2-3.5,7.399-7.4,7.399
	c-4.2,0-7.4-3.5-7.4-7.399c0-4.2,3.5-7.4,7.4-7.4C110.5,81.1,113.7,84.7,113.7,88.6z"/>
</svg>
